<svg width="18" height="18" viewBox="0 0 18 18" fill="none" xmlns="http://www.w3.org/2000/svg">
<g clip-path="url(#clip0_8_604)">
<path d="M1.10254 12.1843V13.5573C1.10254 15.1441 2.26869 16.4635 3.78896 16.7037V17.7188H4.78733V16.7429H13.1234V17.7188H14.1218V16.7037C15.6421 16.4635 16.8082 15.1441 16.8082 13.5573V12.1843H1.10254Z" fill="#131212"/>
<path d="M2.10119 9.18778V3.42795C2.10119 2.46359 2.88578 1.67903 3.85014 1.67903C4.74325 1.67903 5.48162 2.35204 5.58595 3.21747C4.54635 3.45161 3.76728 4.38176 3.76728 5.49104V6.15673H8.42924V5.49104C8.42924 4.37377 7.63896 3.43807 6.58821 3.21231C6.47769 1.79797 5.29234 0.680664 3.85014 0.680664C2.33527 0.680664 1.10282 1.91308 1.10282 3.42795V9.18778H0.436768V11.1861H17.4746V9.18778H2.10119Z" fill="#131212"/>
</g>
<defs>
<clipPath id="clip0_8_604">
<rect width="17.0382" height="17.0382" fill="white" transform="translate(0.436279 0.680664)"/>
</clipPath>
</defs>
</svg>
