<svg width="18" height="18" viewBox="0 0 18 18" fill="none" xmlns="http://www.w3.org/2000/svg">
<path d="M16.9053 14.1692C16.9053 14.3575 16.8305 14.538 16.6973 14.6712C16.5642 14.8043 16.3836 14.8791 16.1953 14.8791H7.67621C7.48792 14.8791 7.30735 14.8043 7.17421 14.6712C7.04108 14.538 6.96628 14.3575 6.96628 14.1692C6.96628 13.0395 7.41506 11.956 8.21388 11.1572C9.0127 10.3584 10.0961 9.90961 11.2258 9.90961H12.6457C13.7754 9.90961 14.8588 10.3584 15.6577 11.1572C16.4565 11.956 16.9053 13.0395 16.9053 14.1692ZM11.9358 3.52026C11.3741 3.52026 10.8251 3.68681 10.3581 3.99884C9.89113 4.31087 9.52715 4.75437 9.31222 5.27326C9.09729 5.79215 9.04106 6.36312 9.15063 6.91397C9.2602 7.46482 9.53065 7.97081 9.92779 8.36795C10.3249 8.76509 10.8309 9.03555 11.3818 9.14512C11.9326 9.25469 12.5036 9.19845 13.0225 8.98352C13.5414 8.76859 13.9849 8.40462 14.2969 7.93763C14.6089 7.47064 14.7755 6.92161 14.7755 6.35997C14.7755 5.60683 14.4763 4.88454 13.9437 4.35199C13.4112 3.81945 12.6889 3.52026 11.9358 3.52026ZM5.54643 3.52026C4.98479 3.52026 4.43576 3.68681 3.96877 3.99884C3.50178 4.31087 3.13781 4.75437 2.92288 5.27326C2.70795 5.79215 2.65171 6.36312 2.76128 6.91397C2.87085 7.46482 3.14131 7.97081 3.53845 8.36795C3.93559 8.76509 4.44158 9.03555 4.99243 9.14512C5.54328 9.25469 6.11425 9.19845 6.63314 8.98352C7.15203 8.76859 7.59553 8.40462 7.90756 7.93763C8.21959 7.47064 8.38614 6.92161 8.38614 6.35997C8.38614 5.60683 8.08695 4.88454 7.5544 4.35199C7.02186 3.81945 6.29957 3.52026 5.54643 3.52026ZM5.54643 14.1692C5.54537 13.4235 5.69229 12.685 5.97866 11.9965C6.26504 11.3079 6.68518 10.6831 7.21476 10.1581C6.78137 9.99446 6.32204 9.91029 5.8588 9.90961H5.23406C4.18778 9.91148 3.18488 10.328 2.44504 11.0678C1.70521 11.8076 1.28874 12.8105 1.28687 13.8568V14.1692C1.28687 14.3575 1.36166 14.538 1.4948 14.6712C1.62794 14.8043 1.80851 14.8791 1.99679 14.8791H5.67421C5.59156 14.6514 5.54835 14.4114 5.54643 14.1692Z" fill="#131212"/>
</svg>
